HIERARCHY
ROOT Hips
{
  OFFSET -0.075261 99.3982 2.56729
  CHANNELS 6 Xposition Yposition Zposition Zrotation Xrotation Yrotation
  JOINT Spine
  {
    OFFSET 0 10.1816 0.1315
    CHANNELS 3 Zrotation Xrotation Yrotation
    JOINT Spine1
    {
      OFFSET 0 10.0835 -1.0008
      CHANNELS 3 Zrotation Xrotation Yrotation
      JOINT Spine2
      {
        OFFSET 0 9.1 -1.3734
        CHANNELS 3 Zrotation Xrotation Yrotation
        JOINT Neck
        {
          OFFSET 0 16.6717 -2.5162
          CHANNELS 3 Zrotation Xrotation Yrotation
          JOINT Head
          {
            OFFSET 0 9.6179 1.685
            CHANNELS 3 Zrotation Xrotation Yrotation
            End Site
            {
              OFFSET 0 0 0
            }
          }
        }
        JOINT LeftShoulder
        {
          OFFSET 4.5704 10.946 -2.628
          CHANNELS 3 Zrotation Xrotation Yrotation
          JOINT LeftArm
          {
            OFFSET 10.5924 -0.5246 -2.2321
            CHANNELS 3 Zrotation Xrotation Yrotation
            JOINT LeftForeArm
            {
              OFFSET 27.8415 -0.0001 0
              CHANNELS 3 Zrotation Xrotation Yrotation
              JOINT LeftHand
              {
                OFFSET 28.3288 0 0
                CHANNELS 3 Zrotation Xrotation Yrotation
                End Site
                {
                  OFFSET 0 0 0
                }
              }
            }
          }
        }
        JOINT RightShoulder
        {
          OFFSET -4.57 10.9462 -2.628
          CHANNELS 3 Zrotation Xrotation Yrotation
          JOINT RightArm
          {
            OFFSET -10.5928 -0.5248 -2.2321
            CHANNELS 3 Zrotation Xrotation Yrotation
            JOINT RightForeArm
            {
              OFFSET -27.8415 0 0
              CHANNELS 3 Zrotation Xrotation Yrotation
              JOINT RightHand
              {
                OFFSET -28.3288 0 0.0001
                CHANNELS 3 Zrotation Xrotation Yrotation
                End Site
                {
                  OFFSET 0 0 0
                }
              }
            }
          }
        }
      }
    }
  }
  JOINT LeftUpLeg
  {
    OFFSET 8.2078 -6.7517 -1.5996
    CHANNELS 3 Zrotation Xrotation Yrotation
    JOINT LeftLeg
    {
      OFFSET 0 -44.3705 0.2846
      CHANNELS 3 Zrotation Xrotation Yrotation
      JOINT LeftFoot
      {
        OFFSET 0 -44.4279 -2.9822
        CHANNELS 3 Zrotation Xrotation Yrotation
        JOINT LeftToeBase
        {
          OFFSET 0 -8.7287 10.7106
          CHANNELS 3 Zrotation Xrotation Yrotation
          End Site
          {
            OFFSET 0 0 0
          }
        }
      }
    }
  }
  JOINT RightUpLeg
  {
    OFFSET -8.2078 -6.7517 -1.5996
    CHANNELS 3 Zrotation Xrotation Yrotation
    JOINT RightLeg
    {
      OFFSET 0 -44.3705 0.2862
      CHANNELS 3 Zrotation Xrotation Yrotation
      JOINT RightFoot
      {
        OFFSET 0 -44.4277 -2.9838
        CHANNELS 3 Zrotation Xrotation Yrotation
        JOINT RightToeBase
        {
          OFFSET 0 -8.7287 10.7106
          CHANNELS 3 Zrotation Xrotation Yrotation
          End Site
          {
            OFFSET 0 0 0
          }
        }
      }
    }
  }
}
MOTION
Frames:	11
Frame Time:	0.0333333
-329.625 98.0649 62.3689 -8.69551 -4.38989 178.079 -0.846362 2.94253 -4.76437 1.22697 5.83328 -9.93709 1.22697 5.83329 -9.93709 1.80366 5.39465 1.3459 -1.74993 -12.4526 4.64124 -11.7443 -0.513559 -17.9678 -56.9905 20.9698 -16.0711 0.408976 -11.2287 -95.8099 10.469 1.99161 -26.3667 18.8594 -2.23062 -5.17752 60.3985 37.4411 -14.9781 -29.5736 -14.7587 94.2207 -6.82081 2.00566 3.50368 -2.79064 1.41177 10.4809 -1.56426 28.1749 -1.47351 -8.48397 -0.315814 -0.304754 4.50896 -31.6065 4.36375 3.30799 -30.5725 4.55489 -14.8645 64.8007 -0.264591 -7.5416 2.00604 0.0871626 -0.865976 -13.9542 1.38168 
-329.919 99.8341 55.9378 -6.98082 -5.80196 174.509 -0.323828 2.56044 -5.21131 1.91928 5.03152 -10.6228 1.91929 5.03151 -10.6228 2.48333 3.15908 2.11104 -1.21393 -11.082 5.8937 -12.027 -0.390326 -18.8282 -54.1467 24.3454 -17.2297 -0.128203 -12.171 -98.9791 15.34 1.24139 -28.7619 17.1117 -2.24891 -5.83023 59.9266 35.9323 -16.8257 -28.8634 -15.4509 95.1499 -4.46609 2.19392 0.922795 -0.286288 3.48369 11.4476 -1.32009 25.6255 -2.03878 -19.6981 13.2164 1.97144 11.5192 -33.3249 6.37366 7.63506 -30.7095 3.75381 -8.38494 47.8598 -2.68305 -8.60766 1.1681 0.224873 4.09606 -15.8379 2.2153 
-330.134 100.425 49.5471 -6.63649 -7.02218 171.182 0.0491619 2.13669 -5.27688 2.08311 4.17588 -10.673 2.08311 4.17587 -10.673 3.08727 0.883483 2.3753 -0.36849 -9.43173 6.12201 -12.4168 -0.281721 -19.4798 -51.4505 26.9273 -17.8052 -0.817462 -13.2554 -101.99 16.7389 1.08413 -31.0065 15.6754 -2.27195 -6.48692 59.2771 32.8489 -18.2354 -28.3692 -15.9257 96.2947 -0.671333 2.60943 0.276739 -0.3007 6.3122 11.2285 -0.686634 24.7121 -0.728474 -20.3225 17.1712 2.55945 8.12684 -20.8187 4.32607 10.0331 -30.6103 2.26812 -3.72712 32.8869 -3.86197 -7.07666 1.52577 0.112172 -2.5407 -9.74409 1.26462 
-330.152 99.9615 43.2836 -7.94011 -6.76576 168.462 -0.117328 1.90955 -5.14788 1.46358 3.75235 -10.409 1.46358 3.75235 -10.409 3.20437 0.0520194 2.16291 0.755353 -8.88178 5.48061 -12.8375 -0.227604 -19.6713 -50.5009 28.2035 -17.5667 -3.33806 -13.3247 -103.507 16.0702 1.21585 -32.8669 14.2363 -2.27764 -7.13745 59.1461 29.1818 -19.924 -28.1009 -16.1399 97.3238 2.8698 3.04032 0.696672 -2.00676 9.9561 10.5457 -0.144639 25.9518 1.89424 -19.1928 18.4182 2.61576 -4.72771 -0.329703 3.82528 10.4148 -31.4025 0.797201 -0.822384 26.0281 -6.73722 -4.29222 1.52281 -0.22301 -3.12209 -7.81463 2.51261 
-329.913 98.5909 37.1573 -9.80516 -4.67231 166.144 -0.624614 1.9862 -4.74551 0.306198 3.96024 -9.62455 0.3062 3.96024 -9.62455 2.80139 0.939846 1.50175 1.78315 -9.48249 4.08542 -13.1208 -0.270869 -19.2168 -51.4895 28.8502 -16.3098 -6.39984 -12.5042 -102.474 17.551 1.2139 -32.9835 13.2021 -2.30878 -7.8304 59.2945 26.16 -21.7903 -29.9843 -16.2015 97.3912 2.56315 2.72323 -0.390963 -3.84414 12.5509 10.4015 0.19297 32.5876 3.5527 -19.3059 18.5813 2.82435 -5.13083 -0.593356 4.32896 10.8424 -30.2847 0.638117 -0.866441 24.9849 -9.35695 -7.66665 1.02674 -0.0917697 -2.84697 -6.22806 2.72344 
-329.601 96.2311 31.0256 -10.5688 -1.72463 164.496 -0.943928 2.21155 -4.29425 -0.464209 4.44308 -8.77848 -0.464213 4.44308 -8.77848 2.28673 3.47606 0.559952 1.82275 -10.8766 2.50491 -12.7005 -0.45325 -18.1059 -53.4341 29.1185 -14.1986 -7.81114 -11.9815 -99.0843 20.3413 1.23087 -31.3754 13.5135 -2.44841 -8.50465 58.7252 24.0086 -22.2148 -32.5967 -15.36 96.419 -1.51554 1.88789 -2.4652 -3.70446 14.2077 11.461 0.622421 42.7071 3.13155 -20.1814 18.8821 3.08046 -5.13145 -0.461199 4.33429 12.0411 -27.4665 1.72633 -2.21285 29.5405 -11.1274 -17.626 -7.25026 -0.502878 -0.749262 -6.38399 0.730106 
-329.325 92.9673 25.0581 -9.48546 0.825727 163.544 -0.983635 2.46107 -4.07458 -0.246826 4.93449 -8.4438 -0.246825 4.93449 -8.4438 2.1872 6.62789 -0.179359 0.937451 -12.5358 1.51818 -12.0452 -0.668885 -16.7597 -55.4328 28.1931 -11.5102 -7.48033 -11.6515 -93.3838 22.3523 1.39274 -28.8991 15.4683 -2.64208 -8.57729 56.8337 22.4168 -19.6089 -33.5359 -12.6025 94.5243 -6.47202 1.0657 -4.59579 -0.064606 14.1519 13.4356 2.14958 55.788 0.337 -19.7393 17.4908 2.75253 -5.60326 -0.336283 4.78842 14.3923 -27.1933 4.0087 -4.33463 42.95 -12.7518 -14.8292 -18.4295 -1.17263 1.31242 -8.38238 -2.33947 
-328.859 90.2823 19.7188 -6.90022 2.15376 162.314 -0.526394 2.69486 -3.95226 0.52359 5.3721 -8.23676 0.523592 5.3721 -8.23675 3.26519 8.84477 -0.461272 -0.45982 -13.6714 1.47517 -12.2736 -0.831675 -15.3975 -57.7773 24.964 -8.30274 -4.69911 -10.7061 -85.8601 22.3577 2.09713 -25.2837 18.3089 -2.59466 -7.09751 54.1096 21.2532 -13.9539 -33.8081 -8.71198 91.8022 -9.99177 0.442793 -6.95733 6.04324 11.8981 14.8782 5.66503 68.6331 -3.5519 -17.654 14.9724 2.02922 -5.95925 0.253224 4.99555 17.6668 -25.0272 6.28632 -4.84456 50.9142 -14.8574 -12.6274 -25.7517 -1.36435 2.33139 -8.72972 -3.99044 
-328.265 88.7234 15.0202 -4.84608 2.2409 160.195 -0.0744237 2.87661 -3.63238 1.01832 5.71949 -7.494 1.01833 5.71949 -7.49401 5.22412 9.68644 -0.590197 -1.82481 -14.6656 1.74802 -13.4955 -1.03319 -13.5563 -60.5725 20.6337 -3.96168 -0.889652 -9.10051 -80.4752 20.9919 3.29161 -20.4599 20.271 -2.07676 -4.14677 52.3001 21.0612 -7.46615 -34.135 -6.27964 89.9368 -11.7897 0.0715602 -9.2015 10.7993 6.7033 15.2364 12.2917 79.3703 -9.01902 -14.0144 11.5836 1.15937 -4.46407 1.81924 3.1615 19.2474 -22.4105 6.53463 -3.93854 54.3596 -15.3182 -12.3773 -30.5703 -1.65066 2.78277 -8.23862 -4.94486 
-327.486 88.423 10.799 -4.30918 1.1736 157.591 0.237265 2.94206 -2.93561 0.89699 5.86203 -5.80209 0.896995 5.86202 -5.8021 7.01612 9.35267 -1.09293 -2.28042 -16.2163 1.17536 -14.0541 -1.37837 -11.0151 -63.2203 18.6743 1.83315 -1.78857 -9.13528 -81.0288 20.0724 4.38574 -15.0703 20.3953 -1.37354 -1.05766 52.5034 22.5962 -2.12477 -34.4001 -6.86972 90.0187 -13.137 -0.0893953 -11.0503 12.531 -1.60177 14.8014 31.6427 86.3979 -27.4641 -9.42606 6.61317 0.418571 -2.42723 3.36641 0.800004 19.273 -19.7934 5.49295 -4.62797 54.1456 -12.7036 -14.1509 -33.7119 -2.39436 2.84987 -7.79334 -5.19904 
-326.349 89.6124 6.49228 -5.10337 -0.695196 154.941 0.499783 2.80937 -1.72967 0.368889 5.61627 -3.03576 0.36889 5.61627 -3.03576 8.12276 7.48414 -2.11409 -2.15281 -17.2178 -0.729777 -12.7884 -1.67924 -8.73697 -65.4853 19.826 7.83447 -7.14805 -10.5741 -86.1352 18.9727 5.52019 -9.16643 19.916 -0.807548 1.40329 53.1127 25.3583 2.24123 -35.5047 -9.32306 91.2586 -14.7178 -0.0624345 -13.258 11.863 -11.3831 13.6433 48.8946 88.1194 -44.7344 -5.91599 0.802426 0.225844 -1.87394 3.53109 0.253672 18.4744 -16.3965 4.09008 -6.90458 49.785 -8.64934 -16.346 -34.0889 -3.13929 2.52186 -9.03986 -4.58616 
